<?xml version="1.0" standalone="no"?>
<!DOCTYPE svg PUBLIC "-//W3C//DTD SVG 20010904//EN"
 "http://www.w3.org/TR/2001/REC-SVG-20010904/DTD/svg10.dtd">
<svg version="1.0" xmlns="http://www.w3.org/2000/svg"
 width="390.000000pt" height="390.000000pt" viewBox="0 0 390.000000 390.000000"
 preserveAspectRatio="xMidYMid meet">
<metadata>
Created by potrace 1.11, written by Peter Selinger 2001-2013
</metadata>
<g transform="translate(0.000000,390.000000) scale(0.100000,-0.100000)"
fill="#000000" stroke="none">
<path d="M445 3183 c-16 -8 -31 -17 -33 -18 -3 -2 255 -654 293 -740 7 -16 97
-241 200 -500 103 -259 193 -483 200 -500 7 -16 43 -106 80 -200 37 -93 73
-183 80 -200 7 -16 55 -133 105 -260 51 -126 93 -231 94 -232 1 -2 21 5 44 14
32 12 42 21 42 39 0 12 37 98 81 191 45 92 96 200 114 238 18 39 60 127 94
198 143 297 182 380 179 382 -2 1 -22 12 -46 24 l-43 22 -33 -73 c-19 -40 -70
-149 -115 -243 -45 -93 -110 -228 -144 -300 -34 -71 -80 -168 -103 -214 l-40
-85 -495 1237 c-351 878 -498 1237 -509 1236 -8 0 -28 -7 -45 -16z"/>
<path d="M3396 3172 c-3 -5 -62 -162 -132 -348 -69 -186 -185 -496 -256 -689
-72 -192 -145 -390 -163 -440 -18 -49 -119 -321 -224 -604 -106 -283 -188
-517 -184 -521 15 -14 77 -30 84 -23 4 5 42 100 84 213 42 113 94 252 116 310
22 58 42 112 44 120 2 8 49 134 103 280 55 146 139 371 187 500 48 129 117
314 153 410 36 96 71 191 78 211 7 19 56 151 108 292 53 142 96 260 96 263 0
4 -25 15 -67 28 -12 4 -24 3 -27 -2z"/>
</g>
</svg>
